<?xml version="1.0" standalone="no"?>
<!DOCTYPE svg PUBLIC "-//W3C//DTD SVG 20010904//EN"
 "http://www.w3.org/TR/2001/REC-SVG-20010904/DTD/svg10.dtd">
<svg version="1.0" xmlns="http://www.w3.org/2000/svg"
 width="640.000000pt" height="640.000000pt" viewBox="0 0 640.000000 640.000000"
 preserveAspectRatio="xMidYMid meet">
<metadata>
Created by potrace 1.14, written by Peter Selinger 2001-2017
</metadata>
<g transform="translate(0.000000,640.000000) scale(0.100000,-0.100000)"
fill="#000000" stroke="none">
<path d="M2564 5681 c-12 -5 -75 -15 -140 -21 -173 -17 -184 -19 -239 -47 -43
-23 -68 -27 -181 -33 -137 -8 -195 -24 -215 -62 -12 -23 -43 -36 -127 -54 -34
-7 -72 -20 -84 -28 -12 -9 -32 -16 -43 -16 -13 0 -35 -17 -55 -40 -22 -26 -49
-45 -82 -56 -26 -8 -54 -24 -60 -33 -7 -10 -30 -30 -51 -44 -21 -14 -64 -53
-96 -86 -33 -34 -64 -61 -71 -61 -17 0 -210 -195 -210 -213 0 -7 -15 -20 -32
-28 -23 -10 -40 -29 -56 -61 -12 -27 -26 -48 -31 -48 -5 0 -12 -11 -15 -24 -3
-14 -22 -46 -43 -72 -20 -27 -50 -75 -66 -108 -16 -33 -35 -66 -42 -73 -7 -7
-23 -34 -35 -60 -12 -26 -33 -71 -46 -99 -13 -28 -24 -59 -24 -69 0 -10 -13
-31 -29 -46 -19 -17 -32 -43 -36 -66 -5 -34 -20 -100 -32 -145 -2 -10 -10 -24
-17 -31 -24 -23 -58 -152 -66 -250 -5 -65 -14 -106 -26 -124 -12 -19 -20 -59
-25 -123 -5 -59 -15 -112 -27 -139 -17 -37 -20 -60 -16 -140 2 -63 0 -86 -5
-66 -9 32 -15 -179 -16 -570 0 -182 2 -215 18 -244 9 -19 19 -46 22 -60 34
-200 34 -273 0 -367 -13 -38 -25 -62 -26 -54 0 8 -9 -21 -19 -65 -29 -131 -42
-169 -60 -185 -9 -8 -27 -33 -40 -55 -34 -58 -72 -94 -97 -95 l-23 0 0 -710 0
-710 860 0 c749 0 860 2 860 15 0 21 32 85 40 80 4 -3 22 22 39 55 18 33 37
60 42 60 5 0 14 11 18 24 5 13 43 59 84 102 41 43 87 94 102 112 15 18 29 31
31 29 2 -2 26 18 54 44 27 27 62 51 77 54 15 4 51 13 79 21 32 9 66 12 92 8
36 -6 47 -3 76 20 26 19 46 26 80 26 25 0 48 -5 51 -10 3 -5 11 -10 16 -10 6
0 7 5 4 10 -4 6 12 10 40 10 27 0 44 -4 40 -10 -11 -18 51 -24 440 -42 310
-15 626 -16 935 -5 253 9 366 23 398 48 13 10 57 25 97 34 155 35 301 -4 356
-94 16 -27 16 -28 -12 -47 -34 -22 -42 -40 -31 -61 6 -9 3 -31 -5 -55 -12 -36
-11 -44 13 -103 14 -36 23 -69 20 -74 -3 -5 1 -25 9 -45 8 -19 15 -61 15 -93
0 -108 -6 -103 136 -103 l124 0 0 86 c0 59 -7 108 -21 155 -19 62 -20 87 -16
251 4 188 14 245 47 278 27 27 60 95 60 123 0 27 48 96 68 97 6 0 12 4 12 8 0
4 16 26 36 48 20 21 43 54 51 72 7 17 18 32 23 32 5 0 19 19 31 42 12 23 43
68 70 100 27 33 49 64 49 69 0 6 7 17 15 25 8 8 19 34 25 57 6 23 28 78 49
122 22 44 47 113 56 153 12 52 25 80 45 100 34 34 50 87 50 165 0 31 4 65 9
75 6 9 17 53 27 97 9 44 27 96 40 116 43 68 54 133 69 389 11 187 12 309 5
515 -5 149 -12 286 -16 305 -14 77 -37 146 -56 166 -18 20 -56 143 -78 250
-11 50 -61 174 -71 174 -8 0 -20 34 -38 105 -6 23 -28 59 -51 84 -22 23 -40
49 -40 56 0 7 -11 23 -25 36 -13 13 -25 32 -25 42 0 11 -19 38 -42 62 -24 23
-63 75 -88 116 -46 75 -134 173 -182 204 -15 9 -26 21 -23 25 7 11 -27 38 -63
51 -19 6 -32 18 -32 28 0 9 -30 44 -66 77 -37 32 -74 66 -83 74 -9 8 -34 27
-56 41 -38 26 -70 52 -142 120 -18 16 -53 37 -79 46 -28 9 -49 23 -51 34 -7
25 -37 42 -113 64 -36 11 -67 22 -70 25 -3 3 -26 16 -53 30 -26 14 -58 34 -70
46 -13 12 -52 31 -87 43 -36 12 -72 31 -80 41 -17 22 -98 44 -220 60 -47 6
-94 17 -105 24 -11 7 -58 22 -105 35 -47 12 -101 27 -120 33 -44 14 -1055 22
-1086 9z m-669 -1832 c13 0 15 -2 6 -6 -8 -3 32 -21 89 -39 57 -18 112 -42
124 -52 12 -10 35 -27 51 -37 77 -47 119 -115 131 -217 2 -15 11 -46 21 -70
25 -61 26 -245 1 -259 -9 -5 -26 -39 -39 -77 -15 -46 -33 -79 -60 -104 -20
-21 -40 -38 -44 -38 -15 0 -82 -35 -124 -64 l-43 -31 -142 0 c-135 0 -143 1
-193 28 -29 15 -61 27 -71 27 -10 0 -34 14 -52 30 -18 17 -37 30 -41 30 -11 0
-59 53 -59 65 0 14 -82 95 -97 95 -36 0 -54 105 -43 253 9 120 25 171 58 181
10 4 26 24 35 45 10 21 41 60 70 85 28 26 61 55 72 65 11 11 44 21 75 25 56 6
207 54 180 56 -8 1 -4 6 10 10 14 5 34 7 45 4 11 -2 29 -4 40 -5z m3100 -303
l80 -13 74 -74 c63 -62 77 -82 92 -134 11 -33 19 -68 19 -77 0 -9 7 -23 15
-32 25 -24 41 -165 25 -220 -7 -25 -16 -44 -20 -41 -4 2 -13 -15 -20 -38 -7
-23 -29 -58 -49 -78 -20 -20 -48 -50 -62 -65 -33 -37 -48 -47 -139 -90 -41
-20 -76 -40 -78 -45 -6 -16 -120 -10 -147 7 -14 9 -43 20 -66 25 -68 16 -150
59 -193 103 -23 23 -54 49 -69 59 -44 29 -77 114 -84 218 -6 96 10 219 34 254
7 11 13 29 13 40 0 24 34 59 66 69 12 4 32 21 44 39 36 52 92 87 157 96 90 13
220 12 308 -3z m-1369 -467 c43 -8 62 -20 117 -74 36 -35 83 -71 104 -80 39
-16 133 -101 133 -120 0 -5 14 -23 30 -39 17 -15 37 -41 46 -57 8 -16 18 -29
22 -29 4 0 21 -28 37 -62 41 -89 47 -216 15 -314 -23 -72 -101 -201 -126 -211
-8 -3 -14 -11 -14 -19 0 -7 -16 -25 -36 -41 -20 -15 -50 -40 -66 -55 -17 -15
-38 -28 -48 -28 -10 0 -25 -11 -34 -25 -11 -17 -37 -31 -89 -46 -39 -12 -77
-28 -83 -35 -32 -40 -232 -65 -350 -45 -86 15 -145 32 -139 41 2 3 -28 19 -68
34 -39 15 -77 36 -85 47 -7 10 -18 19 -23 19 -24 0 -177 136 -211 188 -21 32
-57 84 -81 117 -24 33 -47 69 -51 80 -4 11 -7 85 -7 164 0 141 1 144 32 205
18 33 44 74 58 91 51 59 135 135 155 141 12 4 53 35 91 69 59 52 79 64 129 74
119 26 435 32 542 10z"/>
<path d="M1738 3641 c-26 -5 -51 -22 -81 -54 -24 -26 -52 -47 -64 -47 -64 0
-78 -262 -20 -376 29 -57 57 -76 150 -99 132 -33 283 -6 314 55 7 14 27 37 45
52 30 24 34 35 44 104 14 101 -11 251 -40 241 -6 -2 -29 17 -51 43 -59 70 -84
82 -179 86 -44 1 -98 -1 -118 -5z"/>
<path d="M4793 3405 c-17 -7 -38 -24 -48 -36 -11 -16 -19 -20 -22 -11 -7 18
-18 15 -75 -22 -52 -33 -109 -96 -88 -96 7 0 5 -7 -4 -15 -21 -21 -28 -67 -23
-152 5 -74 24 -119 67 -158 11 -10 20 -24 20 -31 0 -8 12 -22 27 -31 39 -26
287 -25 352 0 50 20 63 33 96 102 33 66 34 183 4 280 -19 62 -23 67 -62 84
-23 10 -49 26 -56 35 -38 45 -137 72 -188 51z"/>
<path d="M2830 2609 c-19 -12 -37 -21 -40 -20 -3 1 -7 -8 -10 -21 -5 -17 4
-32 40 -65 57 -54 162 -123 186 -123 31 0 297 -42 319 -50 84 -34 157 -43 305
-41 139 2 208 13 225 35 6 7 24 20 40 28 17 9 39 26 50 38 18 19 18 24 5 47
-26 45 -76 65 -150 59 -194 -16 -254 -18 -326 -7 -44 6 -101 14 -129 17 -64 6
-195 45 -189 55 4 7 -2 10 -76 29 -19 5 -62 16 -96 24 -81 21 -112 20 -154 -5z"/>
</g>
</svg>
